<?xml version="1.0" standalone="no"?>
<!DOCTYPE svg PUBLIC "-//W3C//DTD SVG 20010904//EN"
 "http://www.w3.org/TR/2001/REC-SVG-20010904/DTD/svg10.dtd">
<svg version="1.0" xmlns="http://www.w3.org/2000/svg"
 width="342.000000pt" height="342.000000pt" viewBox="0 0 342.000000 342.000000"
 preserveAspectRatio="xMidYMid meet">
<metadata>
Created by potrace 1.14, written by Peter Selinger 2001-2017
</metadata>
<g transform="translate(0.000000,342.000000) scale(0.100000,-0.100000)"
fill="#000000" stroke="none">
<path d="M1219 3380 c-122 -9 -287 -40 -409 -77 -135 -41 -206 -81 -302 -175
-76 -73 -92 -95 -132 -181 -57 -122 -65 -157 -66 -277 0 -70 4 -101 15 -117
14 -21 14 -26 -10 -73 -28 -56 -162 -220 -237 -291 -71 -67 -64 -101 22 -112
25 -3 99 -13 165 -21 65 -9 157 -16 204 -16 l84 0 -6 -97 c-4 -54 -7 -118 -7
-143 l0 -46 -116 11 c-63 6 -120 8 -125 4 -12 -7 21 -72 56 -109 13 -14 31
-41 39 -61 16 -39 89 -118 171 -185 45 -37 187 -124 203 -124 4 0 18 -6 32
-13 54 -28 247 -88 340 -106 30 -6 64 -13 75 -15 69 -14 119 -69 218 -240 97
-165 157 -294 177 -380 28 -118 43 -292 38 -422 l-5 -114 211 0 c258 1 329 13
706 121 41 11 113 31 160 44 47 13 118 33 159 45 41 11 102 27 135 34 34 8 90
21 124 31 35 9 66 14 69 12 4 -5 -12 -82 -42 -198 -23 -86 -22 -89 29 -89 l43
0 22 102 c37 180 71 394 87 558 14 143 7 486 -12 570 -3 14 -7 68 -10 120 -7
125 -40 368 -58 422 -7 24 -19 65 -25 92 -15 61 -67 172 -120 254 -23 34 -41
67 -41 72 0 5 -13 24 -28 42 -15 18 -40 51 -55 73 -14 22 -59 76 -98 120 -40
44 -104 116 -143 160 -85 96 -154 166 -261 264 l-79 73 32 27 c55 45 48 54
-72 106 -33 14 -74 36 -90 49 -17 12 -44 29 -61 38 -65 33 -171 91 -180 98
-18 15 -247 91 -350 116 -115 29 -299 38 -476 24z m-89 -410 c32 -156 60 -227
137 -342 27 -40 16 -39 163 -17 68 10 85 15 190 57 184 74 376 223 483 374
l34 47 44 -26 c24 -15 46 -30 49 -33 3 -4 19 -15 35 -23 17 -9 42 -27 57 -40
l28 -23 -62 -94 c-87 -132 -283 -332 -320 -326 -4 0 -15 -9 -23 -21 -9 -13
-20 -23 -25 -23 -5 0 -30 -13 -56 -30 -26 -16 -50 -27 -54 -25 -5 3 -10 -2
-14 -10 -3 -8 -14 -15 -24 -15 -10 0 -23 -5 -30 -12 -7 -7 -12 -8 -12 -2 0 5
-3 5 -8 -1 -12 -17 -86 -53 -148 -74 -32 -11 -86 -29 -119 -41 -33 -11 -68
-19 -78 -16 -9 2 -15 0 -12 -4 7 -11 -133 -43 -147 -34 -6 4 -8 3 -5 -3 7 -11
-113 -35 -293 -58 -165 -22 -425 -29 -560 -16 -190 19 -198 22 -162 60 38 41
166 193 176 209 43 70 81 122 89 122 6 0 37 -5 68 -12 49 -10 67 -9 121 6 122
33 160 72 205 206 42 128 85 218 146 310 49 72 81 107 88 96 4 -6 21 -81 39
-166z m1292 -176 c43 -22 114 -90 159 -151 36 -48 39 -57 39 -118 0 -36 -5
-87 -11 -113 -57 -249 -101 -370 -189 -520 -34 -56 -58 -107 -55 -112 12 -20
51 -9 78 23 42 47 69 93 106 177 18 41 39 89 46 105 25 56 61 199 96 380 11
60 12 60 28 35 9 -13 48 -57 86 -98 39 -41 79 -88 90 -105 10 -17 28 -41 40
-53 22 -24 145 -218 145 -229 0 -3 13 -33 30 -66 42 -84 88 -235 96 -313 7
-66 7 -66 -34 -118 -116 -149 -394 -400 -423 -382 -7 4 -9 3 -6 -3 9 -15 -21
-35 -185 -125 -181 -99 -348 -165 -503 -199 -95 -20 -306 -17 -392 6 -40 10
-73 23 -73 28 0 5 -8 17 -18 26 -10 9 -26 34 -36 56 -11 22 -22 42 -25 45 -10
8 -63 92 -59 94 2 1 43 8 92 15 148 20 324 68 441 120 140 61 171 85 146 115
-17 20 -45 20 -84 0 -60 -32 -69 -36 -155 -68 -121 -46 -318 -91 -447 -102
l-70 -6 -16 39 -16 40 -119 22 c-153 29 -295 78 -464 158 -123 58 -141 70
-203 135 -37 39 -67 76 -67 82 -1 6 -14 26 -30 45 -16 19 -28 37 -25 39 2 2
37 -4 77 -13 124 -28 358 -31 528 -6 345 51 593 104 730 156 172 66 357 181
461 284 67 67 79 88 79 136 0 37 -52 180 -97 264 -29 55 -29 65 0 88 12 10 38
43 56 73 44 71 93 130 109 130 7 0 27 -7 44 -16z m-232 -378 c27 -58 52 -122
56 -143 5 -33 2 -42 -25 -67 -17 -16 -32 -28 -34 -25 -2 2 -18 40 -37 84 -18
44 -41 99 -51 122 -14 35 -22 42 -41 40 -13 -1 -23 3 -23 10 0 11 83 81 97 82
4 1 30 -46 58 -103z m-151 -43 c32 -64 102 -226 98 -228 -114 -84 -302 -193
-313 -182 -5 5 -85 320 -81 321 1 1 11 7 22 14 11 7 38 21 60 32 22 11 69 35
105 55 36 19 70 35 76 35 5 0 21 -21 33 -47z m-325 -236 c22 -67 41 -143 44
-168 l4 -47 -94 -30 c-51 -17 -116 -36 -143 -42 -28 -5 -60 -12 -72 -15 -20
-5 -21 -1 -22 53 -1 46 -18 150 -42 252 -3 11 24 24 101 51 58 19 121 43 140
51 19 9 37 17 40 17 3 0 23 -54 44 -122z m-366 -139 c22 -144 26 -178 18 -178
-3 0 -51 -9 -108 -20 -57 -10 -125 -22 -153 -25 -27 -4 -58 -9 -67 -11 -16 -5
-18 5 -18 103 0 59 -3 131 -6 159 l-7 52 74 12 c59 11 132 25 239 49 3 0 15
-63 28 -141z m-389 -87 c-2 -82 -8 -153 -12 -158 -5 -4 -76 -8 -159 -8 -184 0
-179 -4 -177 134 1 53 4 110 8 126 l6 30 115 7 c63 4 121 9 129 11 9 3 33 5
55 6 l38 1 -3 -149z m2297 -740 c13 -139 15 -230 11 -375 -6 -159 -29 -411
-39 -422 -2 -1 -48 -11 -103 -23 -133 -26 -194 -42 -360 -91 -77 -23 -162 -49
-190 -57 -100 -29 -352 -94 -420 -108 -101 -21 -300 -45 -366 -45 l-56 0 -6
197 c-4 171 -9 212 -32 298 -14 54 -35 119 -46 144 -10 24 -17 46 -14 49 2 3
30 0 61 -7 118 -23 331 -10 481 30 206 55 565 241 722 375 84 72 140 124 191
178 30 32 72 76 93 98 20 22 38 45 38 51 2 20 17 -101 35 -292z"/>
</g>
</svg>
