<?xml version="1.0" standalone="no"?>
<!DOCTYPE svg PUBLIC "-//W3C//DTD SVG 20010904//EN"
 "http://www.w3.org/TR/2001/REC-SVG-20010904/DTD/svg10.dtd">
<svg version="1.0" xmlns="http://www.w3.org/2000/svg"
 width="274.000000pt" height="274.000000pt" viewBox="0 0 274.000000 274.000000"
 preserveAspectRatio="xMidYMid meet">
<metadata>
Created by potrace 1.14, written by Peter Selinger 2001-2017
</metadata>
<g transform="translate(0.000000,274.000000) scale(0.100000,-0.100000)"
fill="#000000" stroke="none">
<path d="M1201 2429 c-186 -17 -393 -67 -518 -126 -57 -27 -93 -54 -165 -126
-87 -86 -96 -99 -138 -197 -44 -101 -45 -108 -48 -222 -3 -94 0 -124 11 -142
14 -21 14 -27 -7 -72 -25 -53 -170 -231 -248 -305 -50 -47 -56 -60 -35 -76 21
-16 226 -45 372 -51 l140 -7 -1 -55 c-1 -30 -3 -97 -5 -147 l-4 -93 -30 0
c-16 0 -70 5 -120 10 -49 5 -91 8 -93 6 -6 -7 36 -81 53 -96 9 -8 27 -34 40
-59 29 -57 110 -142 195 -207 126 -96 340 -182 570 -230 47 -10 97 -25 112
-34 33 -20 100 -100 130 -157 20 -37 27 -43 53 -42 67 3 68 5 29 66 -19 30
-34 56 -32 57 2 1 43 8 92 15 148 20 324 68 441 120 140 61 171 85 146 115
-17 20 -45 20 -84 0 -60 -32 -69 -36 -155 -68 -121 -46 -318 -91 -447 -102
l-70 -6 -16 39 -16 40 -119 22 c-153 29 -295 78 -464 158 -123 58 -141 70
-202 135 -38 39 -68 76 -68 82 -1 6 -14 26 -30 45 -16 19 -28 37 -25 39 2 2
37 -4 77 -13 124 -28 358 -31 528 -6 427 62 660 119 830 199 137 66 282 163
361 241 67 67 79 88 79 136 0 37 -52 180 -97 264 -29 55 -29 65 0 88 12 10 38
43 56 73 44 71 93 130 109 130 39 0 134 -76 204 -163 36 -46 38 -53 38 -118 0
-39 -5 -91 -11 -117 -57 -249 -101 -370 -189 -520 -34 -56 -58 -107 -55 -112
19 -31 78 6 121 76 91 151 151 327 204 607 7 36 15 55 22 51 6 -4 9 -3 6 2 -4
5 -9 25 -12 44 -3 19 -10 50 -15 68 -5 17 -8 32 -6 32 3 0 -26 28 -63 62 -37
34 -87 81 -112 104 -25 23 -58 53 -75 68 l-30 26 33 28 c47 41 42 57 -25 82
-32 12 -83 37 -113 58 -121 80 -312 172 -446 215 -231 75 -389 90 -663 66z
m-61 -399 c32 -156 60 -227 137 -342 27 -40 16 -39 163 -17 68 10 85 15 190
57 184 74 376 223 483 374 l34 47 44 -26 c24 -15 46 -30 49 -33 3 -4 19 -15
35 -23 17 -9 42 -27 57 -40 l28 -23 -62 -94 c-83 -127 -328 -376 -328 -333 0
4 -7 -3 -16 -15 -8 -12 -20 -22 -26 -22 -5 0 -23 -9 -39 -21 -16 -11 -29 -17
-29 -12 0 4 -4 3 -8 -4 -4 -6 -14 -13 -22 -15 -8 -2 -20 -9 -25 -16 -6 -7 -19
-15 -30 -17 -11 -2 -21 -4 -22 -4 -2 -1 -6 -1 -9 0 -4 0 -10 -3 -13 -8 -26
-36 -380 -160 -472 -166 -21 -1 -35 -5 -33 -8 4 -7 -143 -35 -296 -55 -169
-21 -435 -29 -565 -15 -187 20 -193 22 -157 60 38 41 166 193 176 209 43 70
81 122 89 122 6 0 37 -5 68 -12 49 -10 67 -9 121 6 35 9 84 31 110 49 50 33
62 54 99 172 11 33 23 69 28 80 5 11 19 43 32 70 47 104 158 261 170 241 4 -6
21 -81 39 -166z m1059 -553 c27 -57 53 -120 56 -141 7 -32 4 -41 -21 -67 -32
-34 -40 -36 -47 -11 -17 56 -91 220 -108 238 l-20 21 38 31 c21 17 41 31 45
32 4 0 30 -46 57 -103z m-155 -36 c21 -37 108 -233 104 -236 -103 -77 -303
-193 -314 -182 -5 5 -85 320 -81 321 1 1 11 7 22 14 11 7 38 21 60 32 22 11
69 35 105 55 36 19 69 33 75 32 5 -2 18 -18 29 -36z m-320 -244 c22 -67 41
-143 44 -168 l4 -47 -94 -30 c-51 -17 -116 -36 -143 -42 -28 -5 -60 -12 -72
-15 -20 -5 -22 -1 -22 47 0 29 -9 99 -20 155 -12 55 -21 106 -21 112 0 6 42
23 93 40 50 16 112 38 137 49 25 11 47 21 50 21 3 0 23 -54 44 -122z m-366
-139 c22 -144 26 -178 18 -178 -3 0 -51 -9 -108 -20 -57 -10 -125 -22 -153
-25 -27 -4 -58 -9 -67 -11 -16 -5 -18 5 -18 103 0 59 -3 131 -6 159 l-7 52 74
12 c59 11 132 25 239 49 3 0 15 -63 28 -141z m-389 -87 c-2 -82 -8 -153 -12
-158 -5 -4 -76 -8 -159 -8 -184 0 -179 -4 -177 134 1 53 4 110 8 126 l6 30
115 7 c63 4 121 9 129 11 9 3 33 5 55 6 l38 1 -3 -149z"/>
<path d="M2731 1494 c0 -11 3 -14 6 -6 3 7 2 16 -1 19 -3 4 -6 -2 -5 -13z"/>
<path d="M2731 1244 c0 -11 3 -14 6 -6 3 7 2 16 -1 19 -3 4 -6 -2 -5 -13z"/>
<path d="M2334 398 l-29 -33 33 29 c17 17 32 31 32 33 0 8 -8 1 -36 -29z"/>
</g>
</svg>
